<svg width="34" height="34" viewBox="0 0 34 34" fill="none" xmlns="http://www.w3.org/2000/svg">
<path d="M17.0003 19.8334L16.2932 20.5405L17.0003 21.2476L17.7074 20.5405L17.0003 19.8334ZM18.0003 7.08337C18.0003 6.53109 17.5526 6.08337 17.0003 6.08337C16.448 6.08337 16.0003 6.53109 16.0003 7.08337L18.0003 7.08337ZM9.20989 13.4571L16.2932 20.5405L17.7074 19.1263L10.6241 12.0429L9.20989 13.4571ZM17.7074 20.5405L24.7908 13.4571L23.3766 12.0429L16.2932 19.1263L17.7074 20.5405ZM18.0003 19.8334L18.0003 7.08337L16.0003 7.08337L16.0003 19.8334L18.0003 19.8334Z" fill="white"/>
<path d="M7.08301 22.6666L7.08301 24.0833C7.08301 25.6481 8.35153 26.9166 9.91634 26.9166L24.083 26.9166C25.6478 26.9166 26.9163 25.6481 26.9163 24.0833V22.6666" stroke="white" stroke-width="2"/>
</svg>
