<svg width="41" height="17" viewBox="0 0 41 17" fill="none" xmlns="http://www.w3.org/2000/svg">
<path d="M40.3167 7.13332H38.827C38.1772 3.26155 34.8295 0.299988 30.7992 0.299988C26.8208 0.299988 23.4903 3.11464 22.7188 6.84564C22.0553 6.2894 21.2981 5.9942 20.5 5.9942C19.7026 5.9942 18.9461 6.2894 18.2826 6.84495C17.52 3.11395 14.2304 0.299988 10.2992 0.299988C5.98327 0.299988 2.43608 3.61484 2.08485 7.81665H0.683333C0.30545 7.81665 0 8.12279 0 8.49999C0 8.87719 0.30545 9.18332 0.683333 9.18332H2.08485C2.43608 13.3851 5.98327 16.7 10.2992 16.7C14.7183 16.7 18.3188 13.1419 18.4384 8.7248C19.0213 7.84672 19.747 7.36087 20.5 7.36087C21.253 7.36087 21.9787 7.8474 22.5616 8.7248C22.6832 13.1419 26.3275 16.7 30.7992 16.7C35.2935 16.7 38.95 13.0216 38.95 8.49999H40.3167C40.6945 8.49999 41 8.19385 41 7.81665C41 7.43945 40.6945 7.13332 40.3167 7.13332ZM10.2992 15.3333C6.50465 15.3333 3.41667 12.2679 3.41667 8.49999C3.41667 4.73209 6.50465 1.66665 10.2992 1.66665C14.104 1.66665 17.0833 4.66854 17.0833 8.49999C17.0833 12.3314 14.104 15.3333 10.2992 15.3333ZM30.7992 15.3333C27.0047 15.3333 23.9167 12.2679 23.9167 8.49999C23.9167 4.73209 27.0047 1.66665 30.7992 1.66665C34.604 1.66665 37.5833 4.66854 37.5833 8.49999C37.5833 12.3314 34.604 15.3333 30.7992 15.3333Z" fill="#535C6D"/>
</svg>
