<svg width="26" height="26" viewBox="0 0 26 26" fill="none" xmlns="http://www.w3.org/2000/svg">
<path d="M3.67962 2.89932L5.87184 0.707107C6.26236 0.316583 6.89553 0.316583 7.28605 0.707107L11.135 4.55605C11.5255 4.94658 11.5255 5.57974 11.135 5.97026L8.55327 8.552C8.16 8.94526 8.0625 9.54606 8.31123 10.0435C9.74906 12.9192 12.0808 15.2509 14.9565 16.6888C15.4539 16.9375 16.0547 16.84 16.448 16.4467L19.0297 13.865C19.4203 13.4745 20.0534 13.4745 20.4439 13.865L24.2929 17.7139C24.6834 18.1045 24.6834 18.7376 24.2929 19.1282L22.1007 21.3204C19.9893 23.4317 16.6468 23.6693 14.258 21.8777L10.5233 19.0767C8.77978 17.769 7.23096 16.2202 5.92331 14.4767L3.12226 10.742C1.33072 8.35324 1.56827 5.01068 3.67962 2.89932Z" fill="white"/>
</svg>
