<svg width="26" height="26" viewBox="0 0 26 26" fill="none" xmlns="http://www.w3.org/2000/svg">
<path d="M25.7542 24.5855L19.0414 17.98C20.7992 16.0701 21.8793 13.5443 21.8793 10.7649C21.8785 4.81923 16.9812 0 10.9397 0C4.89812 0 0.000854492 4.81923 0.000854492 10.7649C0.000854492 16.7105 4.89812 21.5298 10.9397 21.5298C13.55 21.5298 15.9442 20.6269 17.8248 19.1258L24.5636 25.7574C24.892 26.0808 25.425 26.0808 25.7534 25.7574C26.0825 25.434 26.0825 24.909 25.7542 24.5855ZM10.9397 19.8735C5.82786 19.8735 1.68394 15.7955 1.68394 10.7649C1.68394 5.73431 5.82786 1.65624 10.9397 1.65624C16.0515 1.65624 20.1954 5.73431 20.1954 10.7649C20.1954 15.7955 16.0515 19.8735 10.9397 19.8735Z" fill="#535C6D"/>
</svg>
