<svg width="25" height="28" viewBox="0 0 25 28" fill="none" xmlns="http://www.w3.org/2000/svg">
<path fill-rule="evenodd" clip-rule="evenodd" d="M12.6464 27.8097C14.7488 26.7619 24.5 21.4088 24.5 12.25C24.5 5.48451 19.0155 0 12.25 0C5.48451 0 0 5.48451 0 12.25C0 21.4088 9.75117 26.7619 11.8536 27.8097C12.1085 27.9367 12.3915 27.9367 12.6464 27.8097ZM12.25 17.5C15.1495 17.5 17.5 15.1495 17.5 12.25C17.5 9.3505 15.1495 7 12.25 7C9.35051 7 7 9.3505 7 12.25C7 15.1495 9.35051 17.5 12.25 17.5Z" fill="white"/>
</svg>
