<svg width="455" height="297" viewBox="0 0 455 297" fill="none" xmlns="http://www.w3.org/2000/svg">
<g clip-path="url(#clip0_4773_4899)">
<path d="M242.697 219.607L241.469 220.563L238.83 223.205L238.511 223.479L238.193 223.615L237.92 223.57L237.601 223.615L237.419 223.706L237.237 223.843L235.235 226.03L235.008 226.394L234.826 226.667L234.78 226.85V227.032L234.826 227.214L234.871 227.351L235.008 227.67L235.19 227.943L236.009 228.991L236.1 229.127L236.191 229.264V229.492L236.145 229.765L236.009 229.902L235.872 229.993L231.459 231.587L230.048 232.088L226.408 233.591L225.18 234.411L222.768 237.099L222.359 237.509L221.54 236.461L220.903 236.097L220.129 236.188L218.082 237.19L217.399 237.372L216.626 237.19L215.807 236.78L211.575 233.728L207.89 231.086L204.932 228.991L203.34 227.305L200.519 223.342L198.835 221.702L195.15 219.106L186.414 212.865L182.137 209.768L178.542 207.171L175.448 204.985L173.901 203.436L173.628 203.254L171.717 200.839L171.444 199.928L170.989 197.97L170.898 197.195L170.989 196.466L171.217 195.829L171.353 195.191L171.262 194.462L170.443 192.685L170.352 191.957V191.046L170.216 190.362L170.034 189.725L169.351 188.358L169.169 187.72L169.078 186.263L168.851 185.944L166.667 184.668L165.393 184.304L164.801 183.848L164.71 183.621L170.216 176.742L171.581 173.781L171.262 172.597L170.398 171.276L166.075 166.402L172.036 163.532V163.031L164.528 152.554L173.901 149.001L176.131 149.047L176.95 151.005L177.632 152.144L182.046 157.428L185.64 163.76L186.277 164.124L188.598 164.625L192.056 165.992L196.151 168.315L204.113 173.235L204.705 174.282L205.66 175.239L205.615 175.922L208.8 174.829L210.665 172.005L212.258 168.725L212.713 168.042L213.213 167.586L213.759 167.404L214.26 167.541L214.76 167.996L215.306 168.816L215.443 170.001L215.488 172.278L215.852 173.052L216.99 173.462L224.133 174.328L224.725 173.736L225.544 170.638L226.044 170.365L226.954 170.001L230.458 169.864L231.595 169.636L232.46 169.272L233.279 168.042L233.597 168.087L233.825 168.907L234.416 172.46L234.644 173.371L235.008 174.419L235.918 175.148L236.828 175.695L239.467 176.332L247.475 176.879L248.749 176.514L248.112 178.701L247.975 179.566L247.93 180.478V181.343L247.975 182.072L248.112 182.482L248.066 182.892L247.702 182.846L246.337 182.573L246.064 182.527L245.837 182.618L245.609 182.801L245.336 183.256L245.291 183.666L244.563 185.898L243.971 186.581L243.516 187.037L242.925 188.95L242.606 189.542L239.512 189.497L238.921 189.315L238.329 188.905L237.829 188.449L237.283 188.312H236.691L235.781 188.449L235.326 188.722L235.099 188.996L235.008 189.315L234.962 189.679V189.952L235.099 190.636L235.781 191.319L235.326 192.594L235.099 192.822L234.962 192.868V192.959L235.008 193.095L235.281 193.597L236.054 194.371L236.464 194.918L236.6 195.145L236.555 195.236L235.781 195.327L235.599 195.373L235.417 195.51L235.235 195.646L234.962 195.692L234.598 196.011L233.324 198.562L232.96 199.063L232.505 199.518L232.005 199.883L230.412 200.612L230.185 201.067L230.003 201.295L229.912 201.431L229.047 202.525L228.592 203.481L228.228 204.347L228.638 205.212L230.549 207.9L231.322 208.401L232.551 209.084L232.596 209.266L232.733 209.585L232.824 209.859L233.188 210.086H233.688L234.826 209.585L235.235 209.631L235.463 210.041L238.648 211.544L239.103 212.318L239.33 213.093V213.685L239.421 214.414L239.649 215.143L240.149 215.416L240.786 215.644L241.196 215.872L241.651 216.373L242.06 216.919L242.197 217.147L242.333 217.511L242.606 218.422L242.652 218.65L242.697 219.607Z" fill="#717B90" stroke="white" stroke-linecap="round" stroke-linejoin="round"/>
<path d="M166.075 166.402L170.397 171.276L171.262 172.597L171.58 173.781L170.215 176.742L164.71 183.621L164.664 183.575L164.437 182.755L164.3 182.436L163.299 181.115L162.935 180.386L162.389 178.245L162.071 177.744L161.206 176.788L160.933 176.332L160.706 175.603L160.433 174.009L159.568 171.048L159.295 170.365L159.477 170.092L159.341 169.591L159.295 167.131L159.204 166.402L158.977 165.81L157.02 162.53L156.52 161.983L150.605 157.61L148.33 156.608L145.736 155.925L144.781 155.788L144.189 156.107L143.825 156.836L143.552 158.066L142.915 158.43L142.415 159.569L141.641 160.389L140.731 160.845L139.73 160.89L138.684 160.435L135.954 158.476H135.453L133.906 158.749L133.77 158.43L133.679 158.111L133.588 158.02L133.087 158.886L132.905 159.068L132.723 159.25L131.449 157.929L129.629 157.474L124.306 157.793L121.075 158.886H119.483L118.573 158.658L117.845 158.111L116.389 156.654L114.796 155.469L112.248 154.148L109.336 152.645L108.608 151.916L108.426 151.096L108.745 148.227L108.972 147.634L109.291 147.133L109.746 146.723L110.838 146.177L111.202 145.767L110.974 145.083L109.2 142.578L108.426 141.029L108.153 139.754L108.836 138.797L109.564 138.296L110.383 138.205L111.384 138.524L112.294 139.116L112.84 139.344L113.249 139.298L113.522 138.843L113.477 138.342L113.249 137.841L112.931 137.431L112.567 137.112L111.293 136.337L110.883 135.928L110.61 135.472L110.929 135.153L111.202 134.333L111.156 133.969L110.883 133.331L110.792 133.194L110.747 133.012L110.838 132.876L111.02 132.739L111.429 132.648L112.157 132.602L112.703 132.374L114.068 131.418L114.569 130.962L114.705 130.871L115.16 130.826L115.706 131.236L115.979 131.418L117.299 131.737L118.618 131.873L118.982 132.192L119.073 132.921V134.515L119.301 135.108L119.983 136.201L120.302 137.112L121.03 138.433L121.394 138.934L121.849 139.253L122.44 139.389H123.669L124.124 139.663L124.397 140.255L124.852 141.622L125.534 142.851L126.399 143.808L132.632 149.502L133.315 149.639L133.679 149.775L133.952 150.003L134.907 151.051L135.726 151.825L136.318 152.053L137.865 152.326L138.365 152.645L139.776 154.194L140.094 154.695L140.413 155.743L140.822 155.925L141.004 156.062L141.596 156.289L142.278 156.244L142.733 155.879L143.78 153.83L144.235 153.328L144.644 153.01L145.099 152.782L145.645 152.645H147.056L152.106 153.875L153.38 154.422L154.609 155.151L156.156 156.335L160.66 161.346L163.8 166.402L163.936 166.493L164.3 166.721L164.664 166.857L166.075 166.402Z" fill="#717B90" stroke="white" stroke-linecap="round" stroke-linejoin="round"/>
<path d="M160.478 77.6209L163.345 82.495L164.664 83.7249L171.808 85.6836L172.217 85.9114V86.2758L172.035 86.7313L164.846 100.351L158.067 113.425L156.611 116.841L156.019 124.266V124.676L156.11 125.041L159.113 130.598L159.659 131.737L159.523 131.919L159.204 132.238L153.517 135.472L152.971 135.973V136.429L153.198 136.93L164.528 152.554L172.035 163.031V163.532L166.075 166.402L164.664 166.858L164.3 166.721L163.936 166.493L163.8 166.402L160.66 161.346L156.156 156.335L154.609 155.151L153.38 154.422L152.106 153.875L147.056 152.645H145.645L145.099 152.782L144.644 153.01L144.235 153.329L143.78 153.83L142.733 155.879L142.278 156.244L141.596 156.289L141.004 156.062L140.822 155.925L140.413 155.743L140.094 154.695L139.776 154.194L138.365 152.645L137.865 152.326L136.318 152.053L135.726 151.825L134.907 151.051L133.952 150.003L133.679 149.775L133.315 149.639L132.632 149.502L126.399 143.808L125.534 142.852L124.852 141.622L124.397 140.255L124.124 139.663L123.669 139.39H122.44L121.849 139.253L121.394 138.934L121.03 138.433L120.302 137.112L119.983 136.201L119.301 135.108L119.073 134.516V132.921L118.982 132.192L118.618 131.874L117.299 131.737L115.979 131.418L115.706 131.236L115.16 130.826L114.705 130.871L114.569 130.962L114.068 131.418L112.703 132.375L112.157 132.602L111.429 132.648L111.02 132.739L110.838 132.876L110.747 133.012L110.792 133.195L110.883 133.331L111.156 133.969L111.202 134.333L110.929 135.153L110.61 135.472L109.973 134.561L109.2 133.878L106.424 132.83L105.059 132.876L104.695 132.693L104.377 132.192L104.422 131.737L104.741 131.372L105.196 131.236H105.241L106.788 130.644L106.697 129.231L106.197 127.455L106.424 125.815L106.879 125.496L107.425 125.268L107.835 124.95L107.926 124.357L107.607 123.902L107.016 123.537L105.833 123.082L104.877 122.216L104.149 121.078L103.33 120.167L102.147 120.03L100.964 120.167L98.644 119.939L93.0475 120.804L91.6825 120.759L91.0455 120.531L89.999 119.392L89.362 119.164L87.997 119.028L87.269 118.572L86.905 117.935L86.5865 115.201L86.359 114.518L85.9495 113.926L84.266 112.149L83.629 111.739L82.992 111.831L82.2185 112.195L81.445 112.423L80.6715 112.468L79.4885 112.241L77.623 111.421L75.8485 109.735L70.161 103.039L69.524 102.629L69.0235 103.449L68.6595 106.501L68.1135 107.549L67.0215 107.913L65.6565 107.822L64.2915 107.503L61.4705 106.319H60.788L60.333 106.455L58.9225 107.321L57.9215 107.776L57.421 108.141L57.1935 108.642L57.33 109.371L57.8305 109.781L61.152 111.375L62.062 112.104L62.881 113.334L63.609 115.019L65.5655 118.208L66.612 119.483L66.9305 119.757L67.067 120.076L66.9305 120.394L66.612 120.577L64.9285 120.85L64.4735 120.713L64.2005 120.258V119.711L64.337 119.073L64.428 118.436L64.155 117.16L63.4725 116.249L62.5625 115.566L59.969 114.336L59.3775 114.199L58.877 114.29L57.9215 114.7L57.512 114.746L57.057 114.518L56.4655 113.607L56.1015 113.243L55.601 113.06L55.0095 113.015L54.418 113.152L53.9175 113.379L53.6445 113.698L53.417 114.154L52.7345 114.928L52.0065 115.247L51.5515 115.611L51.7335 116.568L52.2795 117.798L52.325 118.345L52.0975 119.21L51.0055 121.67L50.6415 122.08L49.6405 122.444L49.413 122.9L49.595 123.446L49.959 123.856L50.0045 124.175L49.4585 124.585L48.9125 124.722L47.138 124.631L46.6375 124.767L45.136 125.496L44.5445 125.587L44.3625 124.084L44.135 123.173L43.771 122.444L43.2705 121.852L42.6335 121.351L41.223 120.577L40.0855 120.44L39.8125 120.349L39.5395 120.121L39.1755 119.848L38.6295 118.982L38.311 118.709L37.856 118.618L37.1735 118.663L35.672 119.164L34.5345 119.802L33.852 120.44L33.579 120.713L32.76 122.444L29.4385 132.876L29.3475 133.422V133.604L26.9815 134.743L26.208 135.791V137.158L26.7995 139.936L26.7085 141.303L26.5265 142.442L26.481 143.535L26.9815 144.81L27.573 145.767L27.846 146.723L27.937 147.726V148.956L28.0735 149.958L28.392 150.914L28.938 151.825L29.484 152.463L29.8935 152.736L30.2575 152.919L31.6225 153.237L31.8045 153.42L31.759 153.647L31.4405 154.012L30.8945 154.422L29.666 155.014L29.12 155.652L28.301 157.109L27.8005 157.428L24.57 156.745L22.0675 156.244L16.1525 155.879L9.73696 155.561L4.82296 155.287L0.545956 155.06L0.500456 138.797V130.644V122.444V114.245V106V97.7094V89.3734V81.0373V72.6557L0.454956 64.2741V55.847V47.3287V38.856V30.2922V21.6829L0.545956 21.6373L3.00296 20.8174L5.45996 20.043L7.96246 19.223L12.922 17.6287L15.379 16.8088L17.8815 16.0344L20.3385 15.2145L25.298 13.6201L27.8005 12.8457L30.2575 12.0258L32.76 11.2514L35.217 10.4315L40.1765 8.83716L43.498 7.78946L46.774 6.78731L50.0955 5.78517L53.417 4.73747L54.9185 4.28195L56.4655 3.82642L59.514 2.91538L61.1065 2.45986L64.2915 1.54882L65.884 1.0933L68.0225 0.455566L68.6595 0.501119L69.3875 0.819984L69.615 1.00219L69.5695 1.04774L69.16 2.141L69.069 2.82428L68.9325 3.23425L68.5685 4.00863L68.4775 4.46416V5.51185L68.3865 5.78517L68.2955 5.87627L68.068 6.01293L67.977 6.10403L67.886 6.24069L67.6585 6.92397L66.703 8.24498L66.5665 8.47274L66.521 8.56385L66.248 8.83716L65.0195 10.5681L64.883 10.8415L64.8375 11.1148L64.7465 12.0714L64.428 13.0735L64.064 13.8479L63.9275 14.4401L63.791 15.6244L63.6545 16.2166L63.427 16.8088L63.154 17.3554L62.972 17.5832L62.608 17.9476L62.426 18.1754L62.335 18.4487L62.2895 18.722L62.1985 19.2686L62.1075 19.8152L60.333 24.1427L60.1055 25.8281L60.0145 26.9214L60.06 28.0146L60.606 29.6089L61.152 31.0211L61.88 32.2054L62.335 33.8453L62.2895 34.7108L62.1075 35.303L61.88 35.8496L61.334 36.214L60.697 37.125L60.5605 37.7628L60.3785 38.1272L60.242 38.4005L60.1965 38.7194L60.3785 40.0859L60.8335 41.5892L61.516 42.2269L62.0165 42.7735L63.063 42.9557L64.337 42.8646L65.6565 42.1358L67.0215 40.997L68.2045 39.9037L68.978 38.9016L69.3875 38.2638L69.706 37.6717L70.252 37.0339L70.889 36.1229L71.4805 35.1207L71.9355 34.4375L72.3905 33.7997L72.527 33.3442L72.163 32.6609L71.617 32.4332L70.98 32.1599L71.344 33.0253L70.889 33.162L70.252 32.9798L69.979 32.5243L70.252 31.1122L70.5705 30.4744L70.7525 30.0189L71.2985 29.8367L71.6625 29.6545L72.2085 29.8367L72.345 30.5655L72.4815 31.0211L72.8455 31.3855L73.3915 31.5221L74.256 31.2944L74.711 30.7477L74.5745 30.0189L73.983 29.4723L73.6645 28.9257L73.9375 27.9691L73.983 26.7847L73.6645 25.5548L73.437 24.4615V23.6872L73.983 23.5505L74.711 23.4138L75.075 22.5939L75.2115 21.6829L75.439 20.9996L75.621 19.9063L75.0295 19.5419L74.438 19.9974L73.983 20.9085L72.982 21.5007L72.345 21.5918L71.6625 22.1384L70.889 21.5918L70.8435 20.7263L71.162 19.8152L71.617 18.7675L72.0265 17.8565L72.8455 16.9454L73.255 16.1711L73.983 15.4422L74.7565 14.6678L75.348 14.3945L74.1195 13.4835L73.437 12.618L72.8455 10.2948L72.618 8.79161L72.527 7.78946L72.618 6.65066L72.982 5.32965L73.3915 4.23639L73.619 3.68977L76.2125 5.4663L79.5795 7.74391L81.9 9.29268L88.1335 13.5746L92.183 16.2622L92.092 16.4444L91.455 17.3099L91.091 18.0387L90.5905 19.7241L90.181 20.8174L89.4075 22.1384L88.816 22.8672L88.543 24.1882L88.2245 25.4637L87.815 26.4203L87.36 27.2402L86.45 28.4701L86.0405 29.3812L85.722 30.2922L85.54 31.2033L85.8585 33.0709L86.541 34.6652L87.36 35.7585L89.544 38.2638L92.82 41.5436L94.549 43.229L95.914 44.2312L97.279 45.3244L97.5975 45.6433L97.6885 46.1444L97.552 47.1921L97.006 48.012L95.7775 48.8319L95.368 49.9252L94.913 51.0184L94.3215 52.1117L94.731 53.1138L96.0505 53.3416L97.2335 53.2505L98.28 52.9316L98.9625 52.2939L99.918 52.2028L100.964 52.385L101.965 52.0206L103.057 51.2918L104.559 50.2896L105.241 49.3786L105.378 48.923L105.014 48.5131L104.513 48.4675L104.058 48.2853L103.785 48.012L103.694 47.6931V47.2832L103.831 47.0099L104.013 46.5543L104.331 46.281L104.559 46.0077H105.014L105.696 46.0533L106.424 46.1899L106.925 46.0533L107.334 45.6433L107.516 45.1422L107.88 43.9123L108.062 42.728L107.926 41.5436L107.607 39.5849L107.152 38.0816L106.561 36.8517L106.379 35.6674L106.333 34.6652L106.788 34.0275L107.243 33.6631L107.744 33.0709L108.108 32.251L108.335 31.2033V29.8367L108.381 28.0602V27.1491L108.881 27.5135L114.023 30.93L118.846 34.2097L123.305 37.125L127.127 39.7215L132.632 43.3657L134.27 44.4589L134.953 45.2333L135.408 46.2355L135.59 47.101L135.772 49.0142L136.045 49.8796L137.592 52.385L140.595 55.7103L142.051 57.2591L143.507 58.8534L145.372 60.9944L146.874 62.7253L149.922 66.2784L151.424 68.0094L152.925 69.7404L154.427 71.4714L157.384 74.8878L159.386 77.1654L160.433 77.6209H160.478Z" fill="#717B90" stroke="white" stroke-linecap="round" stroke-linejoin="round"/>
<path d="M285.558 160.981V161.118L282.327 162.439L282.1 162.986L281.781 163.396L282.191 168.315L282.236 168.497L282.327 168.634L282.464 168.953L282.691 169.226L282.873 169.317L283.237 169.545L285.603 170.183L285.74 170.319L285.831 170.456L285.922 170.593V170.866V171.185L285.831 171.823V172.415L285.876 172.597L286.104 173.189L286.695 174.237L285.967 176.105L281.918 183.985L281.417 183.484L281.099 183.074L281.008 182.937L280.962 182.801L280.917 182.664V182.482L281.099 181.935V181.616L281.053 181.48L281.008 181.343L280.098 180.295L279.324 179.612L279.051 179.475L278.824 179.43L278.551 179.521L276.64 180.842L276.048 181.115L275.502 181.206L275.093 181.115L274.592 180.933L274.137 180.66L273.591 180.25L273.182 180.068L272.818 180.022L272.454 180.113L272.135 180.386L271.817 180.705L271.589 181.115L271.362 181.571L271.043 182.527L270.952 183.074V183.621L271.18 184.258L271.362 184.532L271.498 184.805L271.453 185.078L271.271 185.488L271.089 185.67L270.543 185.898L270.406 186.126V186.399L270.725 187.219L270.816 188.449L270.634 189.224L270.27 189.998L270.224 190.226L270.27 190.453L270.406 190.636L270.77 191V191.319L270.634 191.547L269.951 192.503L269.724 192.959L269.587 193.414L269.36 194.189L268.677 195.829L268.632 196.056L268.677 196.284L268.814 196.33H268.996L269.496 196.239H269.724L269.951 196.284L270.179 196.375L270.315 196.603L270.406 196.785V197.059L270.27 197.377L269.997 197.651L268.313 199.245L267.995 199.427L262.307 200.612L261.17 200.384L260.032 199.655L259.486 199.837L258.986 199.564L258.485 199.199L257.393 198.79L256.984 198.334L256.301 197.377L256.028 197.332L255.937 197.286L255.437 197.195L253.025 196.102H252.616L252.434 196.193L252.297 196.33L252.161 196.694L252.07 196.922L252.024 197.059L252.07 197.514L251.979 198.197V198.38L251.933 198.562L251.842 198.653L251.797 198.835L251.114 199.837L251.069 200.065L251.16 200.202H251.342L251.524 200.247L251.66 200.338L251.797 200.475L251.842 200.657L251.797 200.839L251.706 201.113L251.296 202.024L251.205 202.251L250.75 204.028L250.568 204.438L250.341 204.575L250.022 204.711H249.249L248.521 204.62L247.747 204.256L246.837 203.755L246.655 203.709L246.473 203.8L246.337 204.028L246.291 204.256L246.2 204.848L245.973 205.03L245.745 205.212L244.153 205.622L242.879 205.805L242.606 205.85L242.469 205.941L242.333 206.078L242.287 206.26L242.469 206.67L243.288 207.581L243.789 208.037L244.016 208.264L244.244 208.583L245.017 211.499L245.063 211.772L245.017 212.273L244.972 212.592L244.881 212.865L244.107 214.642V214.824L244.426 215.872L245.836 218.696L245.336 219.015L242.697 219.607L242.651 218.65L242.606 218.422L242.333 217.511L242.196 217.147L242.06 216.919L241.65 216.373L241.195 215.872L240.786 215.644L240.149 215.416L239.648 215.143L239.421 214.414L239.33 213.685V213.093L239.102 212.318L238.647 211.544L235.462 210.041L235.235 209.631L234.825 209.585L233.688 210.086H233.187L232.823 209.859L232.732 209.585L232.596 209.266L232.55 209.084L231.322 208.401L230.548 207.9L228.637 205.212L228.228 204.347L228.592 203.481L229.047 202.525L229.911 201.432L230.002 201.295L230.184 201.067L230.412 200.612L232.004 199.883L232.505 199.518L232.96 199.063L233.324 198.562L234.598 196.011L234.962 195.692L235.235 195.646L235.417 195.51L235.599 195.373L235.781 195.328L236.554 195.236L236.6 195.145L236.463 194.918L236.054 194.371L235.28 193.597L235.007 193.095L234.962 192.959V192.868L235.098 192.822L235.326 192.594L235.781 191.319L235.098 190.636L234.962 189.952V189.679L235.007 189.315L235.098 188.996L235.326 188.722L235.781 188.449L236.691 188.313H237.282L237.828 188.449L238.329 188.905L238.92 189.315L239.512 189.497L242.606 189.542L242.924 188.95L243.516 187.037L243.971 186.582L244.562 185.898L245.29 183.666L245.336 183.256L245.609 182.801L245.836 182.618L246.064 182.527L246.337 182.573L247.702 182.846L248.066 182.892L248.111 182.482L247.975 182.072L247.929 181.343V180.478L247.975 179.567L248.111 178.701L248.748 176.515L247.474 176.879L239.466 176.332L236.827 175.695L235.917 175.148L235.007 174.419L234.643 173.371L234.416 172.46L233.824 168.907L233.597 168.087L233.278 168.042L232.459 169.272L231.595 169.636L230.457 169.864L226.954 170.001L226.044 170.365L225.543 170.638L224.724 173.736L224.133 174.328L216.989 173.463L215.852 173.053L215.488 172.278L215.442 170.001L215.306 168.816L214.76 167.996L214.259 167.541L213.759 167.404L213.213 167.586L212.712 168.042L212.257 168.725L210.665 172.005L208.799 174.829L205.614 175.922L205.66 175.239L204.704 174.282L204.113 173.235L196.15 168.315L192.055 165.992L188.597 164.625L186.277 164.124L185.64 163.76L182.045 157.428L177.632 152.144L176.949 151.005L176.13 149.047L173.901 149.001L164.528 152.554L153.198 136.93L152.971 136.429V135.973L153.517 135.472L159.204 132.238L159.523 131.919L159.659 131.737L159.113 130.598L156.11 125.041L156.019 124.676V124.266L156.611 116.841L158.067 113.425L164.846 100.351L172.035 86.7312L172.217 86.2757V85.9113L171.808 85.6835L164.664 83.7248L163.345 82.4949L160.478 77.6208L162.662 77.2108L164.528 76.892L167.895 76.2542L170.898 75.7076L172.399 75.4343L174.811 75.0243L177.222 74.6144L189.28 72.6556L191.691 72.2457L195.741 72.6556L199.745 73.02L203.794 73.3845L207.798 73.7489L211.484 74.0677L215.124 74.3866L218.809 74.751L222.449 75.0699L223.905 75.2065L224.815 74.9332L227.5 73.4756L230.048 72.0634L232.687 70.5602L235.235 69.1481L235.735 68.9659L236.19 68.7837L237.055 68.9203L237.464 69.3303L237.919 69.6947L240.786 73.43L243.607 77.1653L244.926 78.5774L246.246 79.944L248.976 81.6749L251.706 83.3604L252.752 84.317L254.982 88.9633L256.438 91.9242L258.394 96.0239L260.123 99.5314L260.578 99.5769L264.4 97.5271L268.177 95.4317L267.631 104.405L267.039 113.334L266.903 115.247L266.675 115.885L266.038 116.112L265.902 116.613L265.765 123.583L265.674 130.507L265.765 130.917L265.993 131.099H269.178H272.044L274.956 131.145H278.141L278.323 131.099L278.551 131.145H278.733L278.869 131.236L279.324 135.745L279.779 140.209L280.598 144.582L281.463 148.955L282.6 154.194L283.738 159.341L284.329 160.07L284.921 160.799L285.558 160.981Z" fill="#717B90" stroke="white" stroke-linecap="round" stroke-linejoin="round"/>
<path d="M281.918 183.985L282.146 184.167L285.467 184.304L286.559 184.623L286.969 184.714L287.424 184.805L288.015 184.759L288.698 184.623L288.88 184.577L289.016 184.714L289.153 184.896L289.335 185.351L289.471 185.67L289.517 186.035L289.471 186.49L289.335 186.991L289.107 187.538L289.062 187.72L289.016 187.948V188.176L289.062 189.816L289.107 190.408L289.471 192.23L289.562 192.366L289.653 192.549L289.835 192.731L290.381 192.959L290.518 193.095L290.609 193.232V193.505L290.518 193.688V193.961L290.609 194.234L291.337 195.1L291.291 195.92L291.2 196.238L291.109 196.33L290.973 196.466L290.472 196.603L290.336 196.694L290.29 196.876L290.245 197.058L290.381 198.607L290.472 198.789L290.563 198.926L290.882 199.017H291.109L291.337 198.972L291.473 198.926L291.974 198.698L292.11 198.653H292.292H292.474L292.656 198.789L292.793 199.017L292.838 199.473L292.747 199.7V200.019L292.793 200.201L293.703 201.204L294.067 201.067H294.203L294.294 201.021L294.613 201.522L296.706 202.115L297.024 202.16L297.434 202.115L297.616 202.069H297.798L298.253 202.342L298.435 202.434L298.662 202.479L298.935 202.388L299.527 202.434L304.122 203.299L304.577 204.028L305.26 207.262L305.169 207.535L304.759 207.626H304.577L303.849 207.809L303.303 207.991L302.439 208.446L302.029 208.765L301.847 208.947L301.802 209.13L301.711 209.357V209.859V210.177L301.756 210.405L301.802 210.587L301.847 210.906V211.134V211.544L301.802 211.726L301.665 211.908L301.438 211.999L301.21 212.045H300.391L300.073 212.136L299.891 212.455L299.8 212.728L299.754 215.097L300.027 215.689L300.391 216.145L301.483 217.101L303.485 218.878L303.258 219.197L302.939 220.518L302.757 221.884L302.712 223.16L302.393 224.299L302.211 225.437L302.029 225.528L301.756 225.437L301.483 225.528L301.438 225.574L295.113 223.98L293.703 223.889V224.071L293.748 224.435V224.572V224.754L293.657 224.936L293.566 225.073L293.43 225.21L293.293 225.255L292.975 225.346L290.063 225.437L289.699 225.392L289.517 225.301L289.335 225.21L289.153 225.073L289.062 224.891L289.016 224.617L289.062 224.071L289.244 223.16L289.153 222.659L288.607 221.657L288.061 221.565L285.786 221.11L283.738 220.791H283.374L282.919 220.928L282.51 221.155L282.282 221.338L282.1 221.52L281.236 222.841L281.008 223.069L279.006 223.889H278.824L278.46 223.797L278.051 223.57L276.458 222.34L275.821 221.884L275.321 221.93L271.499 222.795L271.362 222.841L268.814 224.071L268.268 224.435L267.859 224.572H266.903L265.129 224.116L264.992 223.98L264.856 223.752L264.81 223.387L264.765 223.114V222.886L264.81 222.34V221.839L264.719 221.611L264.628 221.429L263.991 220.928L263.172 220.381L261.807 219.014L261.534 218.65L261.352 218.377L261.307 218.195L261.034 217.056L260.988 216.919L260.897 216.782L260.761 216.646L260.624 216.555L260.442 216.509L260.215 216.464H259.396L259.077 216.509L258.85 216.646L258.804 216.828V217.01V217.511V217.693L258.759 217.876L258.668 218.012L258.577 218.149L257.985 218.559L257.439 218.878L257.121 218.969L245.837 218.696L244.426 215.871L244.108 214.824V214.641L244.881 212.865L244.972 212.592L245.018 212.273L245.063 211.772L245.018 211.498L244.244 208.583L244.017 208.264L243.789 208.036L243.289 207.581L242.47 206.67L242.288 206.26L242.333 206.078L242.47 205.941L242.606 205.85L242.879 205.804L244.153 205.622L245.746 205.212L245.973 205.03L246.201 204.848L246.292 204.256L246.337 204.028L246.474 203.8L246.656 203.709L246.838 203.755L247.748 204.256L248.521 204.62L249.249 204.711H250.023L250.341 204.574L250.569 204.438L250.751 204.028L251.206 202.251L251.297 202.024L251.706 201.113L251.797 200.839L251.843 200.657L251.797 200.475L251.661 200.338L251.524 200.247L251.342 200.201H251.16L251.069 200.065L251.115 199.837L251.797 198.835L251.843 198.653L251.934 198.562L251.979 198.379V198.197L252.07 197.514L252.025 197.058L252.07 196.922L252.161 196.694L252.298 196.33L252.434 196.193L252.616 196.102H253.026L255.437 197.195L255.938 197.286L256.029 197.332L256.302 197.377L256.984 198.334L257.394 198.789L258.486 199.199L258.986 199.564L259.487 199.837L260.033 199.655L261.17 200.384L262.308 200.611L267.995 199.427L268.314 199.245L269.997 197.651L270.27 197.377L270.407 197.058V196.785L270.316 196.603L270.179 196.375L269.952 196.284L269.724 196.238H269.497L268.996 196.33H268.814L268.678 196.284L268.632 196.056L268.678 195.828L269.36 194.189L269.588 193.414L269.724 192.959L269.952 192.503L270.634 191.547L270.771 191.319V191L270.407 190.636L270.27 190.453L270.225 190.226L270.27 189.998L270.634 189.223L270.816 188.449L270.725 187.219L270.407 186.399V186.126L270.543 185.898L271.089 185.67L271.271 185.488L271.453 185.078L271.499 184.805L271.362 184.532L271.18 184.258L270.953 183.62V183.074L271.044 182.527L271.362 181.571L271.59 181.115L271.817 180.705L272.136 180.386L272.454 180.113L272.818 180.022L273.182 180.067L273.592 180.25L274.138 180.66L274.593 180.933L275.093 181.115L275.503 181.206L276.049 181.115L276.64 180.842L278.551 179.521L278.824 179.43L279.052 179.475L279.325 179.612L280.098 180.295L281.008 181.343L281.054 181.48L281.099 181.616V181.935L280.917 182.482V182.664L280.963 182.801L281.008 182.937L281.099 183.074L281.418 183.484L281.918 183.985Z" fill="#717B90" stroke="white" stroke-linecap="round" stroke-linejoin="round"/>
<path d="M301.437 225.574L301.255 225.757L301.119 225.893L301.073 226.121L301.028 226.622L301.21 227.989L301.938 228.672L305.168 229.811L307.307 229.902L308.353 230.312L308.444 230.448L308.672 230.858L308.808 230.995L308.99 231.041L309.445 230.949L309.627 230.995L309.855 231.405L309.9 231.86L309.582 234.503L309.718 235.368H309.764L309.354 235.687L308.899 235.869L306.988 235.96L306.624 236.051L306.351 236.188L306.169 236.279L306.033 236.416L305.805 236.598L305.669 236.871L305.578 237.099V237.372L305.805 238.192L305.942 239.422L306.579 240.561L306.624 240.698L306.67 240.88V241.108L306.624 241.29L306.579 241.518V241.7L306.533 241.882V242.064L306.579 242.246V242.429L306.67 242.565L306.715 242.93L306.761 243.112V243.294L306.67 243.567L306.533 243.841L306.26 244.251L306.124 244.524L306.078 244.797V245.389L306.033 245.526L305.942 245.663L305.76 245.617L305.623 245.526L305.123 245.025L305.032 244.934L304.895 244.843L304.713 244.752L304.304 244.661L303.894 244.615H303.53L303.166 244.706L302.802 244.888L302.575 245.071L302.393 245.253L302.256 245.389L300.664 248.487L300.391 248.851L299.936 249.353L299.663 249.535L299.253 249.762L298.207 250.036L298.025 250.491L297.706 250.992L297.251 251.493L296.25 252.313L296.114 252.541L295.932 252.997L295.795 253.543L295.522 255.274L295.295 256.094L295.249 256.276L294.885 256.641L291.973 259.01L290.472 259.83L290.153 259.921L289.198 260.103L288.97 260.239L288.743 260.558L288.333 261.242L288.06 261.925L287.924 262.289L287.787 262.699L287.605 263.109L287.423 263.474L284.193 266.48L283.965 266.799L283.829 267.346L283.692 268.667L283.556 269.122L283.146 269.942L282.327 270.443L282.009 269.532L281.144 268.894L280.189 268.393L279.142 268.12H277.14L276.321 267.892L273.637 266.617L272.408 265.068L271.635 264.294L270.77 263.929L269.041 263.428L267.403 262.107L266.675 261.697L264.901 261.424L262.262 260.148L261.352 260.057L260.624 260.376L259.35 261.378L258.667 261.788L256.847 261.925L255.073 261.333L250.705 258.372L248.066 256.595L244.517 254.181L242.014 251.858L238.465 248.669L236.691 247.53L232.823 246.164L229.411 244.205L223.86 239.468L222.358 237.509L222.768 237.099L225.179 234.411L226.408 233.591L230.048 232.088L231.458 231.587L235.872 229.993L236.008 229.902L236.145 229.765L236.19 229.492V229.264L236.099 229.127L236.008 228.991L235.189 227.943L235.007 227.67L234.871 227.351L234.825 227.214L234.78 227.032V226.85L234.825 226.668L235.007 226.394L235.235 226.03L237.237 223.843L237.419 223.707L237.601 223.616L237.919 223.57L238.192 223.616L238.511 223.479L238.829 223.206L241.468 220.564L242.697 219.607L245.336 219.015L245.836 218.696L257.12 218.969L257.439 218.878L257.985 218.559L258.576 218.149L258.667 218.013L258.758 217.876L258.804 217.694V217.512V217.01V216.828L258.849 216.646L259.077 216.509L259.395 216.464H260.214L260.442 216.509L260.624 216.555L260.76 216.646L260.897 216.783L260.988 216.919L261.033 217.056L261.306 218.195L261.352 218.377L261.534 218.65L261.807 219.015L263.172 220.381L263.991 220.928L264.628 221.429L264.719 221.611L264.81 221.839V222.34L264.764 222.887V223.114L264.81 223.388L264.855 223.752L264.992 223.98L265.128 224.117L266.903 224.572H267.858L268.268 224.435L268.814 224.071L271.362 222.841L271.498 222.796L275.32 221.93L275.821 221.885L276.458 222.34L278.05 223.57L278.46 223.798L278.824 223.889H279.006L281.008 223.069L281.235 222.841L282.1 221.52L282.282 221.338L282.509 221.156L282.919 220.928L283.374 220.791H283.738L285.785 221.11L288.06 221.566L288.606 221.657L289.152 222.659L289.243 223.16L289.061 224.071L289.016 224.618L289.061 224.891L289.152 225.073L289.334 225.21L289.516 225.301L289.698 225.392L290.062 225.438L292.974 225.347L293.293 225.255L293.429 225.21L293.566 225.073L293.657 224.937L293.748 224.754V224.572V224.435L293.702 224.071V223.889L295.113 223.98L301.437 225.574Z" fill="#3D475B" stroke="white" stroke-linecap="round" stroke-linejoin="round"/>
<path d="M282.328 270.443L283.147 269.942L283.556 269.122L283.693 268.667L283.829 267.346L283.966 266.799L284.193 266.48L287.424 263.474L287.606 263.109L287.788 262.699L287.924 262.289L288.061 261.925L288.334 261.242L288.743 260.558L288.971 260.24L289.198 260.103L290.154 259.921L290.472 259.83L291.974 259.01L294.886 256.641L295.25 256.277L295.295 256.094L295.523 255.274L295.796 253.543L295.932 252.997L296.114 252.541L296.251 252.314L297.252 251.494L297.707 250.993L298.025 250.491L298.207 250.036L299.254 249.763L299.663 249.535L299.936 249.353L300.391 248.852L300.664 248.487L302.257 245.39L302.393 245.253L302.575 245.071L302.803 244.889L303.167 244.706L303.531 244.615H303.895L304.304 244.661L304.714 244.752L304.896 244.843L305.032 244.934L305.123 245.025L305.624 245.526L305.76 245.617L305.942 245.663L306.033 245.526L306.079 245.39V244.797L306.124 244.524L306.261 244.251L306.534 243.841L306.67 243.568L306.761 243.294V243.112L306.716 242.93L306.67 242.565L306.579 242.429V242.247L306.534 242.064V241.882L306.579 241.7V241.518L306.625 241.29L306.67 241.108V240.88L306.625 240.698L306.579 240.561L305.942 239.422L305.806 238.192L305.578 237.372V237.099L305.669 236.871L305.806 236.598L306.033 236.416L306.17 236.279L306.352 236.188L306.625 236.051L306.989 235.96L308.9 235.869L309.355 235.687L309.764 235.368L310.219 235.824L313.586 236.416L314.314 236.37L316.316 235.687L316.68 235.505L317.044 235.414H317.454L317.863 235.596L318.091 235.687L318.5 236.097L318.91 236.188L319.365 236.006L319.82 235.687L320.002 235.641H320.229H320.457L320.684 235.687L321.094 236.188L321.958 238.192L322.732 239.331L323.005 240.014L322.959 240.743L322.732 241.335L322.413 241.791L322.004 242.155L321.549 242.383L320.912 242.52H320.457L320.184 242.702L320.093 243.431L320.138 243.795L320.32 244.069L320.411 244.387V244.797L320.275 244.98L319.592 245.481L319.41 245.982L319.456 246.574L319.82 247.849L319.865 248.533L319.774 250.491L319.865 251.22L320.047 251.676L320.684 252.678L320.866 253.179L320.912 254.272L321.003 254.728L321.23 255.229L322.277 256.231L323.278 258.008L323.733 258.509L325.098 259.283L327.191 261.151L327.828 262.153L327.919 263.474L327.509 265.433L326.872 267.3L325.826 268.895L325.507 269.532L325.28 270.079L325.189 270.626L324.961 271.035L324.552 271.354L324.142 271.445L322.914 271.628L322.095 271.901L321.64 272.402L320.502 275.818L319.729 277.367L317.818 280.055L316.362 281.421L314.997 283.152L313.905 285.111L313.131 287.161L313.04 288.573L313.586 291.215L313.677 292.627L313.541 293.812L313.222 294.95L312.722 295.953L312.585 296.408L312.494 295.816L312.176 295.36L311.721 295.087L311.175 294.95L310.219 294.996L309.855 294.95L309.582 294.768L308.991 294.358L308.718 294.267L308.399 294.313L307.899 294.449L307.626 294.495L307.444 294.631L307.307 294.95L307.08 295.269L306.807 295.406L306.352 294.996L305.851 293.629L305.26 293.31L304.714 293.493L304.213 293.857L303.349 294.723L302.848 295.133L302.302 295.406L301.711 295.543L301.074 295.634L300.391 295.77L299.39 296.408L298.799 296.545L298.207 296.317L297.934 295.816L297.707 295.178L297.479 294.586L296.933 294.13L295.75 293.675L295.204 293.31L294.977 292.809L294.522 291.352L294.203 291.078L293.657 290.896L292.611 290.167L292.11 289.894H290.836L288.425 290.441L284.967 290.623L284.694 290.714L284.148 291.17L283.875 291.261H283.147L282.828 291.17L281.099 290.441L280.462 290.35L279.78 290.441L279.279 290.577L278.597 290.076L278.642 289.484L279.052 288.892L279.552 288.391L279.962 287.708L279.871 287.161L279.461 286.705L278.915 286.25L278.551 285.339L278.688 284.109L279.234 281.877L279.325 280.556L279.143 277.914L279.234 276.593L280.144 274.953L281.645 273.04L282.601 271.127L282.328 270.443Z" fill="#717B90" stroke="white" stroke-linecap="round" stroke-linejoin="round"/>
<path d="M430.203 185.261L430.157 185.079L429.93 184.259L429.884 183.803L429.975 183.165L430.066 182.528V182.118V181.89L430.021 181.708L429.657 181.389L428.292 180.979L427.973 180.933L427.791 180.797L427.291 180.022L426.927 179.749L426.654 179.977L426.381 180.341L425.926 180.387L424.333 180.068L423.059 179.658L422.331 179.703L421.785 179.794L421.148 179.703L420.921 179.612L420.693 179.476L419.647 178.018L419.419 177.608L419.192 177.38L418.873 177.198L417.508 176.742L417.099 176.697L416.78 176.742L416.644 176.834L416.416 176.788L416.052 176.697L415.324 176.287H415.051L414.915 176.424L414.869 177.016L414.733 176.97L414.46 176.56L413.914 175.467L413.095 174.283L413.868 173.508L413.459 172.643L413.14 172.233L413.095 171.959L413.231 171.777L414.096 170.957L414.414 170.73L414.778 170.229L417.508 169.5L418.373 169.91L419.465 169.409L419.783 169.317H420.375L421.012 169.363L421.74 169.272L425.198 170.137L425.653 170.183L426.108 170.092L427.7 170.046L428.064 169.955L428.246 169.864L428.337 169.819L428.565 169.636L429.202 166.721L429.338 166.129L430.84 165.673L431.841 165.537L432.023 165.354L432.341 164.443L432.478 164.216L432.978 163.806L433.297 164.033L434.07 165.218L434.616 165.582L435.39 165.81L436.8 165.947L436.937 166.038L436.982 166.174V166.357L436.937 166.584V167.404L437.437 167.632L438.074 167.678L438.62 167.905L439.712 169.682L440.531 170.547L441.578 171.003L442.715 171.14L446.128 170.821L447.129 171.14L447.265 172.142L447.174 172.734L447.538 172.688L448.767 171.823L450.723 170.912L451.133 171.185L451.497 171.732L452.043 172.096L453.59 172.005L454.409 172.187L454.545 172.871L453.726 173.964L452.498 174.693L449.995 175.604L447.72 177.016L445.809 177.517L444.899 177.927L444.262 178.883L443.944 181.207L443.17 181.571L442.215 181.115H441.714L441.532 181.708L441.487 182.209L441.35 182.71L441.123 183.12L440.713 183.484L439.667 183.53L437.801 182.254L436.8 182.118L436.027 181.708L435.162 180.706L434.252 179.931L433.479 180.296L433.388 180.842L433.979 181.799L433.934 182.436L433.797 183.029V183.393L434.025 183.712L435.162 184.532L435.435 185.261V186.081L435.117 186.946L434.571 187.675L433.979 187.812L433.251 187.538L431.704 186.627L431.295 186.491L430.112 186.536L429.748 186.4L429.884 186.081L430.203 185.99L430.658 185.944L431.022 185.853L431.158 185.488L430.885 185.261L430.43 185.215L430.203 185.261Z" fill="#717B90" stroke="white" stroke-linecap="round" stroke-linejoin="round"/>
<path d="M417.735 204.529L417.326 204.62L416.689 204.392L416.143 204.165L415.597 203.755L415.324 203.254L415.779 202.707H416.416L416.871 202.479L417.826 201.75L418.509 201.523L418.6 201.887L418.008 204.119L417.735 204.529ZM402.22 199.7L402.402 199.746L402.538 199.655L402.811 199.427L402.993 199.336L403.63 199.154L403.994 199.245L404.176 199.564L403.994 200.11L402.766 200.976L402.356 201.386L402.402 202.297L403.585 203.527L403.539 204.62L403.221 205.03L402.857 205.167H401.992L400.718 205.531L400.354 205.486L400.036 205.167L399.99 204.802L399.854 204.529L399.353 204.483L399.035 204.711L398.671 205.076L398.307 205.303L397.988 205.121L397.943 204.256L399.08 202.479L398.944 201.431L398.625 201.204L397.943 201.067L397.579 200.885L397.306 200.429L396.623 199.017L396.487 198.425L396.532 197.878L396.669 197.241L397.124 196.193L397.943 195.737L398.534 196.102L398.989 196.922L399.353 197.878L399.808 198.471L400.536 198.926L401.992 199.564L402.083 199.655L402.22 199.7ZM413.094 174.282L413.913 175.467L414.459 176.56L414.732 176.97L414.869 177.016L414.914 176.423L415.051 176.287H415.324L416.052 176.697L416.416 176.788L416.643 176.833L416.78 176.742L417.098 176.697L417.508 176.742L418.873 177.198L419.191 177.38L419.419 177.608L419.646 178.018L420.693 179.475L420.92 179.612L421.148 179.703L421.785 179.794L422.331 179.703L423.059 179.658L424.333 180.067L425.925 180.386L426.38 180.341L426.653 179.976L426.926 179.749L427.29 180.022L427.791 180.796L427.973 180.933L428.291 180.979L429.656 181.389L430.02 181.707L430.066 181.89V182.117V182.527L429.975 183.165L429.884 183.803L429.929 184.258L430.157 185.078L430.202 185.26L429.019 185.306L428.564 185.397L426.79 186.399L426.562 186.764L426.38 187.401L426.016 188.358L425.334 189.087L423.013 190.226L422.877 190.727L423.059 191.273L423.559 191.592L424.333 191.957L424.697 192.23L424.833 192.503L424.651 192.868L424.287 192.959L423.878 192.913L423.559 192.777L423.377 192.731H423.195L422.877 192.822L421.876 192.731L420.829 192.503L419.828 192.549L419.009 193.369L418.554 194.462L418.236 194.963L417.826 195.373L416.416 196.193L416.052 196.284L415.506 196.056L415.369 195.51V194.098L415.187 193.414L414.823 192.64L414.323 192.23L413.868 192.64L413.686 193.323L413.64 193.915L413.413 194.325L412.776 194.371L411.502 194.143L410.91 193.87L410.364 193.551L409.864 193.05L409.636 192.549L409.409 192.139L408.226 191.774L407.407 191L406.861 190.954L406.042 191.046L405.587 191L405.223 190.818L404.95 190.499L404.722 190.135L404.449 189.952L404.085 190.043L403.63 190.681L403.403 191.456L403.039 192.048L402.22 192.139L399.126 191.683L397.579 191.957L396.623 192.913L396.077 192.868L393.757 193.095L389.98 194.234L388.843 194.325L387.751 194.28L386.659 193.505L386.204 192.048L385.84 190.408L385.157 189.269L384.566 189.041L384.065 189.087L383.565 189.223L382.973 189.269L382.427 189.132L381.108 188.54L381.472 187.31L381.381 187.174L381.153 186.9L381.108 186.855L380.789 186.354L380.744 186.263L380.698 186.08L380.653 185.352L381.062 184.668L381.836 184.167L383.656 183.757L383.929 183.621L384.202 183.302L384.839 182.208L385.203 181.844L385.567 181.662L385.931 181.571L386.34 181.389L386.659 181.07L387.614 179.931L389.207 178.61L389.616 178.245L389.98 177.927L390.208 177.835L390.663 177.744L390.754 177.608L390.799 177.425L390.89 177.289L391.3 177.016L391.982 176.606L392.255 176.241L392.483 175.922L392.801 175.603L393.211 175.376L393.575 175.33L394.303 175.421L394.667 175.376L395.895 174.237H396.441L396.851 174.419L397.078 174.556L397.26 174.738L398.079 174.829L401.082 174.692L399.399 176.97L399.535 177.152L400.582 177.243L400.764 177.334L401.537 178.154L401.719 178.245L401.992 178.337L402.493 178.428L402.766 178.519L403.312 178.974L404.54 179.658L404.904 179.749L405.496 179.658L407.225 178.018L408.044 176.697L408.59 176.287L410.91 175.011L413.094 174.282Z" fill="#717B90" stroke="white" stroke-linecap="round" stroke-linejoin="round"/>
<path d="M429.338 166.128L429.202 166.721L428.565 169.636L428.337 169.818L428.246 169.864L428.064 169.955L427.7 170.046L426.108 170.092L425.653 170.183L425.198 170.137L421.74 169.272L421.012 169.363L420.375 169.317H419.783L419.465 169.408L418.373 169.909L417.508 169.499L414.778 170.228L414.414 170.729L414.096 170.957L413.231 171.777L413.095 171.959L413.14 172.232L413.459 172.642L413.868 173.508L413.095 174.282L410.911 175.011L408.59 176.287L408.044 176.697L407.225 178.018L405.496 179.657L404.905 179.749L404.541 179.657L403.312 178.974L402.766 178.519L402.493 178.428L401.993 178.336L401.72 178.245L401.538 178.154L400.764 177.334L400.582 177.243L399.536 177.152L399.399 176.97L401.083 174.692L398.08 174.829L397.261 174.738L397.079 174.556L396.851 174.419L396.442 174.237H395.896L394.667 175.376L394.303 175.421L393.575 175.33L393.211 175.376L392.802 175.603L392.483 175.922L392.256 176.241L391.983 176.605L391.3 177.015L391.346 176.742L391.573 175.558L390.572 174.966L388.161 174.373L387.751 173.872L387.66 173.235L387.933 172.825L388.434 172.734L389.344 173.553L389.89 173.736L389.935 173.098L389.708 172.779L384.885 167.313L384.066 166.584L383.975 166.493L383.929 166.356L383.383 165.81L383.611 164.99L383.52 162.393L383.429 161.619L382.883 160.708L382.337 159.979L382.2 159.706L382.109 159.478V159.205L382.155 159.022L382.655 157.929L382.746 157.701L382.883 157.246L382.792 156.927L382.064 156.836L381.973 156.699L381.882 156.517L381.836 155.97L381.791 155.56L381.836 155.333L381.882 155.105L383.201 153.374L383.429 152.964L383.747 152.098H383.929L384.794 151.78L388.07 149.912L388.934 149.775L389.435 150.094L389.89 150.686L391.391 153.237L391.619 153.966L391.664 154.695L391.3 156.881L391.346 157.474L391.664 157.975L392.074 157.929L392.62 157.656L393.211 157.61L393.712 157.838L394.167 158.157L394.622 158.612L394.986 159.113L395.441 159.569L395.987 159.615L397.124 159.478L398.398 159.706L398.99 159.979L399.536 160.389L399.991 160.662L400.992 160.799L401.401 161.163L402.084 162.257L402.493 162.575L402.766 161.892L402.721 161.163L402.584 160.526L402.63 160.024L403.176 159.706L403.813 159.797L404.131 160.207L404.45 161.528L404.677 162.029L405.041 162.393L405.405 162.348L405.678 161.664L406.315 160.844L408.135 162.393L408.727 161.892L408.863 160.662L408.636 154.604L408.818 154.148L409.182 154.239L410.456 155.424L411.593 155.925L412.503 155.743L413.231 154.968L414.096 153.055L414.46 151.871L414.596 151.187L414.505 150.55L413.732 149.547L413.459 148.955L414.005 147.634L414.323 147.224L414.915 146.997L415.506 147.088L415.825 147.543L415.961 148.226V148.955L415.461 150.96L415.506 151.37L415.734 151.461L415.916 151.187L416.007 150.823L416.143 150.595L416.416 150.732L416.553 151.278L416.826 151.415L417.008 151.233L417.053 150.459L417.235 150.322L417.417 150.413L417.645 150.595L420.147 154.33L420.557 155.378L420.693 156.563L420.648 158.02L420.784 159.523L421.467 159.842L423.56 159.478L424.197 160.024L424.606 160.617L425.061 160.844L425.835 160.389L426.426 159.842L427.063 159.478L427.7 159.341L428.383 159.751L428.656 160.434L428.792 161.391L428.838 162.393L429.065 164.215V164.899L428.883 165.536L428.519 166.402L429.338 166.128ZM388.297 168.042L387.979 167.176L387.615 166.584L386.978 166.037L386.25 165.719L385.84 165.81L386.113 166.538L386.614 167.04L387.387 168.087L387.842 168.497L388.343 168.634L388.297 168.042Z" fill="#717B90" stroke="white" stroke-linecap="round" stroke-linejoin="round"/>
<path d="M325.461 178.154L325.37 179.567L325.052 179.931L323.596 180.204L323.232 180.25L323.095 180.341L322.959 180.432L322.914 180.614L322.868 181.434L322.686 182.755L322.777 182.937L322.914 183.074L323.323 182.983L323.824 182.846H324.051L324.142 183.256L321.002 190.454L320.911 190.955L320.82 191.501L320.957 192.458L321.048 192.731L321.185 193.004L321.321 193.096L322.049 193.232L328.055 193.369L335.972 191.41H336.063L336.109 191.456L335.972 191.729L335.835 191.911L335.745 192.093L335.608 192.321L335.244 193.642L335.153 193.87L335.062 194.189L335.38 194.781V194.827L334.334 195.1L333.788 195.51L334.47 196.239L335.653 197.013L336.563 197.377L336.836 197.332L335.699 198.835L335.29 199.564L335.153 199.928V200.202V200.429L335.199 200.612L335.29 200.931L335.471 201.295L335.653 201.933L335.745 202.252L335.79 202.434V202.753L335.745 203.891L335.653 204.074H335.517L335.471 203.937L335.335 203.8L335.199 203.755L335.062 203.709L334.835 203.846L334.789 203.983L334.88 204.119L334.971 204.256L335.471 204.529L335.608 204.666L335.653 204.803L335.608 204.985L335.562 205.212L335.426 205.531L335.38 206.078L335.335 206.397H335.244L334.971 206.351L334.698 207.126L334.425 212.683L334.289 213.503L333.925 214.186L333.287 214.824L332.15 215.553L331.786 216.054L332.105 216.737L331.558 216.965L329.92 217.42L328.646 217.512L327.327 217.42L325.188 216.646L321.23 216.555L312.175 214.186L310.947 214.141L309.946 214.46L307.489 216.236L305.396 216.555L304.85 217.102L305.032 218.605L304.941 218.741L304.85 218.833L304.714 218.878L304.577 218.924L303.895 218.833L303.485 218.878L301.483 217.102L300.391 216.145L300.027 215.689L299.754 215.097L299.8 212.729L299.89 212.455L300.072 212.136L300.391 212.045H301.21L301.437 212L301.665 211.909L301.801 211.726L301.847 211.544V211.134V210.906L301.801 210.588L301.756 210.405L301.71 210.178V209.859V209.358L301.801 209.13L301.847 208.948L302.029 208.766L302.439 208.447L303.303 207.991L303.849 207.809L304.577 207.627H304.759L305.169 207.536L305.26 207.262L304.577 204.028L304.122 203.299L299.526 202.434L298.935 202.388L298.662 202.479L298.435 202.434L298.252 202.343L297.797 202.069H297.615L297.434 202.115L297.024 202.16L296.705 202.115L294.612 201.523L294.294 201.022L294.203 201.067H294.066L293.702 201.204L292.792 200.202L292.747 200.02V199.701L292.838 199.473L292.792 199.017L292.656 198.79L292.474 198.653H292.292H292.11L291.974 198.699L291.473 198.926L291.336 198.972L291.109 199.017H290.881L290.563 198.926L290.472 198.79L290.381 198.607L290.245 197.059L290.29 196.876L290.335 196.694L290.472 196.603L290.972 196.466L291.109 196.33L291.2 196.239L291.291 195.92L291.336 195.1L290.609 194.234L290.517 193.961V193.688L290.609 193.506V193.232L290.517 193.096L290.381 192.959L289.835 192.731L289.653 192.549L289.562 192.367L289.471 192.23L289.107 190.408L289.061 189.816L289.016 188.176V187.948L289.061 187.72L289.107 187.538L289.335 186.992L289.471 186.491L289.516 186.035L289.471 185.671L289.335 185.352L289.152 184.896L289.016 184.714L288.88 184.577L288.697 184.623L288.015 184.76L287.424 184.805L286.969 184.714L286.559 184.623L285.467 184.304L282.145 184.167L281.918 183.985L285.967 176.105L286.695 174.237L286.104 173.189L285.876 172.597L285.831 172.415V171.823L285.922 171.185V170.866V170.593L285.831 170.456L285.74 170.32L285.604 170.183L283.237 169.545L282.874 169.317L282.691 169.226L282.464 168.953L282.327 168.634L282.236 168.497L282.191 168.315L281.781 163.396L282.1 162.986L282.327 162.439L285.558 161.118V160.981L287.06 161.391L290.154 161.209L292.747 161.027L299.39 160.617L302.802 160.435L308.354 160.07L311.72 159.888L312.357 160.07L313.45 160.662L314.041 160.845L314.541 160.754L315.315 160.252L316.089 159.751L316.725 159.296L316.907 159.843L317.044 160.298L317.135 160.389L317.317 160.754L317.909 161.528L318.5 162.302L318.773 162.94L318.864 163.623L318.955 164.261L319.137 164.58L319.319 164.853L319.637 164.58L319.956 164.443L320.275 164.489L320.593 164.853L320.957 164.079L321.503 164.033L321.594 164.762V164.853L321.549 165.172L321.821 165.263L321.867 165.309L321.275 165.764L321.048 165.901L321.275 165.992L321.366 166.174L321.594 166.584V167.586L321.457 168.179L321.321 168.771L321.139 169.317L320.957 169.91L320.547 170.821L320.229 171.276L319.865 171.732L319.41 172.051L318.5 172.506L318.227 172.688L318.181 172.962L318.318 173.098L319.365 173.326L320.184 173.781L322.595 176.196L323.505 176.879L324.37 177.608L325.461 178.154Z" fill="#717B90" stroke="white" stroke-linecap="round" stroke-linejoin="round"/>
<path d="M335.335 206.397L335.381 206.078L335.426 205.531L335.563 205.213L335.608 204.985L335.654 204.803L335.608 204.666L335.472 204.529L334.971 204.256L334.88 204.119L334.789 203.983L334.835 203.846L335.062 203.709L335.199 203.755L335.335 203.8L335.472 203.937L335.517 204.074H335.654L335.745 203.892L335.79 202.753V202.434L335.745 202.252L335.654 201.933L335.472 201.295L335.29 200.931L335.199 200.612L335.153 200.43V200.202V199.928L335.29 199.564L335.699 198.835L336.837 197.332L343.025 196.102L344.253 196.968L344.435 197.469L344.481 198.015V198.516L344.253 198.926L343.662 199.017L341.705 198.744L341.205 198.881L340.249 199.701L339.885 199.837L339.294 198.744L338.884 198.425L338.566 199.063L338.611 199.382L339.066 199.746L339.157 200.02L339.112 200.703L339.157 201.022L339.294 201.386L341.614 204.62L341.705 205.395L340.568 205.85L339.976 204.894L339.567 203.436L339.021 202.252L338.475 201.842L338.293 202.115L338.384 202.753L338.657 203.527L339.248 204.757L339.203 205.258L338.884 205.941L338.793 205.987L338.52 206.032L338.429 206.078L338.247 206.625V206.852L338.202 207.171L338.02 207.399L337.656 207.217L336.973 206.078L336.518 205.714L335.608 206.534L335.335 206.397ZM346.801 193.688L345.937 193.232L345.345 193.141L341.068 193.825L340.522 194.052L339.612 194.553L338.975 194.644L337.474 194.371L336.882 194.417L335.381 194.827V194.781L335.062 194.189L335.153 193.87L335.244 193.642L335.608 192.321L335.745 192.094L335.836 191.911L335.972 191.729L336.109 191.456L336.063 191.41H335.972L328.055 193.369L322.049 193.232L321.321 193.096L321.185 193.005L321.048 192.731L320.957 192.458L320.821 191.501L320.912 190.955L321.003 190.454L324.142 183.256L324.051 182.846H323.824L323.323 182.983L322.914 183.074L322.777 182.938L322.686 182.755L322.868 181.434L322.914 180.614L322.959 180.432L323.096 180.341L323.232 180.25L323.596 180.204L325.052 179.931L325.371 179.567L325.462 178.155L327.509 179.248L330.603 180.888L330.694 180.705L331.013 180.387H331.422L331.604 180.159L331.786 179.84L332.014 179.703L332.332 179.749L333.379 180.25L334.061 180.387L334.653 180.022L334.789 179.567L334.289 179.293L334.926 178.246L334.971 178.018L334.744 177.608L334.607 177.198L334.471 176.742L334.516 176.287L333.834 176.15L333.606 176.014L333.379 175.74L333.197 175.057L333.06 173.599L332.924 172.142L332.969 171.868L333.015 171.595L333.197 171.413L333.333 171.276L333.515 170.912L333.561 170.547L333.47 169.773L333.515 169.409L333.606 169.454L333.879 169.545L333.97 169.636L334.289 168.816L335.017 168.315L335.563 168.042L336.928 169.272L337.11 169.591L337.201 169.955L337.246 170.775L337.337 171.048L337.474 171.14L337.701 170.957H337.792L337.883 171.185L337.974 171.777L338.384 171.595L338.975 171.732L339.567 171.959L339.976 172.278L340.204 172.597L340.477 173.189L340.704 173.417L340.886 173.554L341.569 173.918L341.887 174.146L342.024 174.328L342.297 174.92V175.057L342.251 175.467L342.297 175.649L342.479 175.786L342.661 175.831L342.843 175.786L343.025 175.831L343.389 176.196L343.662 176.606L343.753 177.061L343.389 177.517L343.798 177.79L344.162 177.653L344.526 177.426L344.936 177.289L345.209 177.426L345.072 177.79L344.663 178.473L345.8 178.291L346.255 178.337L346.574 179.202L347.074 179.612L347.211 179.931L347.074 180.204L346.665 180.614V180.888L346.847 181.024L347.12 180.842L347.393 180.523L347.666 180.387L347.893 180.523L348.075 180.751V180.979L347.393 181.298L347.165 181.799L346.847 183.029L347.165 182.983L347.438 183.029L347.711 183.12L347.939 183.302L347.438 183.575L347.484 183.849L347.757 184.122L347.939 184.35L347.984 184.623L348.075 184.942L348.121 185.261L348.03 185.534L347.62 186.035L347.484 186.308L347.347 186.627L347.256 186.901L346.71 190.089L347.074 191.046L347.256 191.319L347.302 191.82L346.938 193.187L346.801 193.688Z" fill="#717B90" stroke="white" stroke-linecap="round" stroke-linejoin="round"/>
<path d="M383.747 152.099L383.428 152.964L383.201 153.374L381.881 155.105L381.836 155.333L381.79 155.561L381.836 155.971L381.881 156.517L381.972 156.699L382.063 156.836L382.791 156.927L382.882 157.246L382.746 157.702L382.655 157.929L382.154 159.023L382.109 159.205V159.478L382.2 159.706L382.336 159.979L382.882 160.708L383.428 161.619L383.519 162.393L383.61 164.99L383.383 165.81L383.064 165.445L381.881 164.944L380.88 165.218L380.152 168.907L378.696 170.638L376.785 171.823L374.055 172.916L371.553 174.829L366.684 176.378L366.093 176.651L365.547 177.107L364.455 178.519L363.818 179.065L363.135 179.293L362.316 179.02L361.952 178.701L361.679 178.337L361.224 177.517L360.906 177.152L360.269 176.697L359.95 176.423L358.904 174.829L358.312 174.237L357.448 174.146L357.038 173.918L356.72 173.554L356.356 173.28L355.901 173.235L355.036 173.508L354.627 173.736L354.217 174.055L353.58 174.92L353.171 175.831L352.989 176.879L352.943 178.154L353.125 180.022L353.035 180.478L352.625 180.705L351.032 180.842L350.077 181.525V182.254L351.123 184.031H351.169L351.715 185.989L351.988 186.627L352.67 187.857L352.943 188.54L353.125 189.315L352.898 191L352.079 191.137L351.032 190.772L350.35 190.863L350.486 191.866L352.397 193.597V194.417L351.396 194.872L350.077 194.827L347.711 194.143L346.801 193.688L346.937 193.187L347.301 191.82L347.256 191.319L347.074 191.046L346.71 190.089L347.256 186.9L347.347 186.627L347.483 186.308L347.62 186.035L348.03 185.534L348.12 185.261L348.075 184.942L347.984 184.623L347.938 184.35L347.756 184.122L347.483 183.848L347.438 183.575L347.938 183.302L347.711 183.12L347.438 183.029L347.165 182.983L346.846 183.029L347.165 181.799L347.392 181.298L348.075 180.979V180.751L347.893 180.523L347.665 180.387L347.392 180.523L347.12 180.842L346.846 181.024L346.665 180.888V180.614L347.074 180.204L347.21 179.931L347.074 179.612L346.573 179.202L346.255 178.337L345.8 178.291L344.662 178.473L345.072 177.79L345.209 177.426L344.935 177.289L344.526 177.426L344.162 177.653L343.798 177.79L343.389 177.517L343.752 177.061L343.661 176.606L343.389 176.196L343.025 175.831L342.842 175.786L342.66 175.831L342.479 175.786L342.296 175.649L342.251 175.467L342.296 175.057V174.92L342.024 174.328L341.887 174.146L341.569 173.918L340.886 173.554L340.704 173.417L340.476 173.189L340.204 172.597L339.976 172.278L339.566 171.959L338.975 171.732L338.384 171.595L337.974 171.777L337.883 171.185L337.792 170.957H337.701L337.474 171.139L337.337 171.048L337.246 170.775L337.2 169.955L337.11 169.591L336.927 169.272L335.562 168.042L336.609 167.586L337.155 166.949L337.655 165.536L338.156 164.124L338.475 163.714L338.884 163.304L339.794 162.894L340.659 162.485L341.341 161.346L341.523 161.118L341.66 160.89L342.205 160.708L343.343 160.571L343.844 160.344L344.299 160.116L344.754 159.797L345.209 159.478L345.664 159.023L345.891 158.613L346.073 156.927L346.3 155.287L346.255 154.695L346.21 154.285L346.119 154.148L345.982 154.057L345.755 153.738L345.664 153.465L345.8 153.192L346.027 153.01L347.256 152.417L347.756 152.281L348.211 152.463L348.485 151.734L349.167 151.096L349.85 150.641L350.577 150.185L351.032 150.049L351.806 150.368L352.17 150.322L353.216 149.639L353.58 149.548L354.4 149.684L355.173 149.821L355.491 149.639L355.446 149.274L354.991 148.454L354.9 148.09L355.082 147.635L355.264 147.179L355.946 146.632L357.448 146.177L358.813 145.084L360.132 144.036L360.542 143.58L360.906 143.17L361.361 142.806L363.135 142.305L364.91 141.804L366.411 141.758L367.867 141.667L368.959 141.212L369.778 140.255L370.142 139.708L370.552 139.39L371.28 139.116L372.008 138.843L374.237 137.203L374.556 136.793L374.874 136.429L375.784 134.834L376.694 133.286L377.058 132.876L377.513 132.648L378.014 132.466L378.423 132.238L378.787 131.873L378.878 131.555L378.969 131.236L379.606 129.778L380.198 129.277L380.744 128.776L383.337 127.683L383.701 127.728L384.202 128.093L384.611 128.548L384.839 129.049L385.021 129.687L385.43 130.097L385.976 130.325L386.613 130.416L387.023 130.234L387.432 130.051L387.978 129.004L388.251 128.32L388.479 127.683L389.07 126.498L389.48 126.088L389.844 125.633L390.117 125.132L390.344 124.494L390.708 123.947H391.345L392.574 124.266L393.575 124.13L394.075 123.902L394.576 123.629L396.35 122.171L396.942 121.624L398.079 120.713L398.944 120.622L399.763 120.986L403.494 123.629L404.404 123.947L404.04 125.314L403.039 125.997L400.855 126.635L397.124 129.414L396.032 129.687L394.712 129.641L393.666 129.915L393.165 131.236L393.12 133.286L392.801 133.878L391.891 134.242L389.252 134.515L388.433 135.017L385.84 137.249L384.702 138.615L383.929 140.301L383.292 141.257L382.473 141.758L381.608 142.214L380.061 143.444L375.784 145.995L375.193 146.906L375.693 148.044L376.649 148.546L380.38 148.956L380.425 149.001L381.381 149.593L381.836 150.003L382.245 150.504L382.882 151.734L383.292 152.099H383.747ZM354.445 155.879L354.172 155.561L354.4 155.242L354.126 154.832L353.762 154.604L354.172 153.921L354.035 153.329L353.08 152.691L352.261 152.6L351.624 152.144L350.76 152.19L349.349 153.602L349.121 154.695L348.439 156.426L348.53 156.472L348.985 156.244L349.03 156.654L349.212 157.064L349.85 157.793L350.305 157.383V157.519L350.168 157.838L350.486 158.43L351.26 158.658L352.125 157.61L353.444 156.381L354.445 155.879Z" fill="#717B90" stroke="white" stroke-linecap="round" stroke-linejoin="round"/>
<path d="M354.445 155.879L353.444 156.38L352.125 157.61L351.26 158.658L350.487 158.43L350.168 157.838L350.305 157.519V157.383L349.85 157.792L349.213 157.064L349.031 156.654L348.985 156.244L348.53 156.471L348.439 156.426L349.122 154.695L349.349 153.602L350.76 152.19L351.624 152.144L352.261 152.6L353.08 152.691L354.036 153.328L354.172 153.921L353.763 154.604L354.127 154.832L354.4 155.242L354.172 155.56L354.445 155.879Z" fill="#717B90" stroke="white" stroke-linecap="round" stroke-linejoin="round"/>
<g filter="url(#filter0_f_4773_4899)">
<circle cx="274" cy="243" r="16" fill="#4C566A"/>
</g>
<circle cx="274" cy="243" r="11" fill="#656F83"/>
<circle cx="274" cy="243" r="8" fill="#838DA1"/>
</g>
<defs>
<filter id="filter0_f_4773_4899" x="256" y="225" width="36" height="36" filterUnits="userSpaceOnUse" color-interpolation-filters="sRGB">
<feFlood flood-opacity="0" result="BackgroundImageFix"/>
<feBlend mode="normal" in="SourceGraphic" in2="BackgroundImageFix" result="shape"/>
<feGaussianBlur stdDeviation="1" result="effect1_foregroundBlur_4773_4899"/>
</filter>
<clipPath id="clip0_4773_4899">
<rect width="455" height="297" fill="white"/>
</clipPath>
</defs>
</svg>
