<svg width="23" height="32" viewBox="0 0 23 32" fill="none" xmlns="http://www.w3.org/2000/svg">
<path d="M19.3158 0H3.6841C1.65269 0 0 1.65269 0 3.68416V27.8097C0 29.8411 1.65269 31.4938 3.68416 31.4938H19.3159C21.3473 31.4938 23 29.8412 23 27.8097V3.68416C22.9999 1.65269 21.3473 0 19.3158 0V0ZM1.23023 3.68416C1.23023 2.33103 2.33103 1.23023 3.6841 1.23023H19.3158C20.6689 1.23023 21.7697 2.33103 21.7697 3.68416V25.2445H1.23023V5.32663H16.4668C16.8065 5.32663 17.0819 5.05119 17.0819 4.71152C17.0819 4.37179 16.8065 4.09641 16.4668 4.09641H1.23023V3.68416ZM21.7697 27.8096C21.7697 29.1627 20.6689 30.2636 19.3158 30.2636H3.6841C2.33103 30.2636 1.23016 29.1627 1.23016 27.8096V26.4747H21.7697V27.8096Z" fill="#535C6D"/>
</svg>
