<svg width="26" height="27" viewBox="0 0 26 27" fill="none" xmlns="http://www.w3.org/2000/svg">
<g clip-path="url(#clip0_901_3844)">
<path d="M13 0.59375C7.95986 0.59375 3.85938 4.69423 3.85938 9.73438C3.85938 11.4373 4.33108 13.0991 5.22382 14.5409L12.4797 26.2337C12.6187 26.4577 12.8636 26.5938 13.1269 26.5938C13.1289 26.5938 13.1309 26.5938 13.1329 26.5938C13.3986 26.5917 13.644 26.4514 13.7804 26.2235L20.8513 14.4174C21.6948 13.0061 22.1406 11.3867 22.1406 9.73438C22.1406 4.69423 18.0401 0.59375 13 0.59375ZM19.544 13.6353L13.1154 24.3688L6.51864 13.7383C5.77555 12.5382 5.37266 11.1537 5.37266 9.73438C5.37266 5.53426 8.79988 2.10703 13 2.10703C17.2001 2.10703 20.6223 5.53426 20.6223 9.73438C20.6223 11.1116 20.2459 12.4607 19.544 13.6353Z" fill="#535C6D"/>
<path d="M13 5.16406C10.4799 5.16406 8.42969 7.2143 8.42969 9.73438C8.42969 12.2383 10.4466 14.3047 13 14.3047C15.5849 14.3047 17.5703 12.2108 17.5703 9.73438C17.5703 7.2143 15.5201 5.16406 13 5.16406ZM13 12.7914C11.3112 12.7914 9.94297 11.4186 9.94297 9.73438C9.94297 8.05433 11.32 6.67734 13 6.67734C14.68 6.67734 16.052 8.05433 16.052 9.73438C16.052 11.3941 14.7156 12.7914 13 12.7914Z" fill="#535C6D"/>
</g>
<defs>
<clipPath id="clip0_901_3844">
<rect width="26" height="26" fill="white" transform="translate(0 0.59375)"/>
</clipPath>
</defs>
</svg>
