<svg width="26" height="27" viewBox="0 0 26 27" fill="none" xmlns="http://www.w3.org/2000/svg">
<path d="M21.8871 16.1618C21.3197 15.5709 20.6352 15.2549 19.9097 15.2549C19.1901 15.2549 18.4997 15.565 17.9088 16.1559L16.0601 17.9988C15.908 17.9169 15.7559 17.8408 15.6096 17.7648C15.399 17.6595 15.2001 17.56 15.0304 17.4547C13.2987 16.3548 11.7249 14.9215 10.2155 13.0669C9.48422 12.1425 8.99279 11.3644 8.63591 10.5746C9.11565 10.1358 9.56028 9.67947 9.99321 9.24069C10.157 9.07688 10.3208 8.90722 10.4846 8.7434C11.7132 7.51481 11.7132 5.92349 10.4846 4.6949L8.88748 3.09774C8.70612 2.91637 8.5189 2.72916 8.34339 2.54194C7.99236 2.17922 7.62379 1.80479 7.24351 1.45376C6.67602 0.892122 5.99737 0.59375 5.28361 0.59375C4.56986 0.59375 3.87951 0.892122 3.29447 1.45376C3.28862 1.45961 3.28862 1.45961 3.28277 1.46546L1.29362 3.47216C0.544762 4.22102 0.117681 5.13369 0.0240737 6.19262C-0.116337 7.90094 0.386801 9.49226 0.772929 10.5336C1.7207 13.0903 3.1365 15.4597 5.24851 17.9988C7.811 21.0586 10.8942 23.4748 14.4161 25.1773C15.7617 25.815 17.5578 26.5697 19.5645 26.6984C19.6874 26.7042 19.8161 26.7101 19.9331 26.7101C21.2845 26.7101 22.4195 26.2245 23.3088 25.2592C23.3146 25.2475 23.3264 25.2416 23.3322 25.2299C23.6364 24.8613 23.9874 24.5279 24.356 24.171C24.6076 23.9311 24.865 23.6796 25.1166 23.4163C25.6958 22.8137 26 22.1116 26 21.392C26 20.6666 25.6899 19.9704 25.099 19.3853L21.8871 16.1618ZM23.9816 22.3223C23.9757 22.3223 23.9757 22.3281 23.9816 22.3223C23.7534 22.568 23.5194 22.7903 23.2678 23.036C22.8876 23.3987 22.5014 23.779 22.1387 24.2061C21.5478 24.8379 20.8516 25.1363 19.9389 25.1363C19.8512 25.1363 19.7576 25.1363 19.6698 25.1305C17.9323 25.0193 16.3175 24.3407 15.1065 23.7615C11.7951 22.1584 8.88748 19.8826 6.47125 16.9984C4.47625 14.5938 3.14235 12.3707 2.25894 9.9837C1.71485 8.52694 1.51593 7.39195 1.60369 6.32132C1.6622 5.63682 1.92546 5.06933 2.41105 4.58375L4.40605 2.58875C4.69272 2.31963 4.99694 2.17337 5.29531 2.17337C5.66389 2.17337 5.96226 2.39568 6.14948 2.5829C6.15533 2.58875 6.16118 2.5946 6.16703 2.60045C6.52391 2.93392 6.86323 3.2791 7.22011 3.64768C7.40147 3.83489 7.58868 4.0221 7.7759 4.21517L9.37307 5.81234C9.99321 6.43248 9.99321 7.00583 9.37307 7.62597C9.2034 7.79563 9.03959 7.9653 8.86993 8.12911C8.37849 8.63225 7.91046 9.10028 7.40147 9.55661C7.38977 9.56831 7.37807 9.57417 7.37222 9.58587C6.86908 10.089 6.96269 10.5804 7.068 10.9139C7.07385 10.9315 7.0797 10.949 7.08555 10.9666C7.50093 11.9728 8.08597 12.9206 8.97524 14.0497L8.98109 14.0556C10.5958 16.0447 12.2983 17.5951 14.1763 18.7827C14.4161 18.9349 14.6619 19.0577 14.8959 19.1747C15.1065 19.28 15.3054 19.3795 15.4751 19.4848C15.4985 19.4965 15.5219 19.5141 15.5453 19.5258C15.7442 19.6252 15.9314 19.672 16.1245 19.672C16.6101 19.672 16.9143 19.3678 17.0137 19.2683L19.0146 17.2675C19.2135 17.0686 19.5294 16.8287 19.898 16.8287C20.2607 16.8287 20.5591 17.0569 20.7405 17.2558C20.7463 17.2616 20.7463 17.2616 20.7522 17.2675L23.9757 20.4911C24.5783 21.0878 24.5783 21.7021 23.9816 22.3223Z" fill="#535C6D"/>
</svg>
