<svg width="139" height="139" viewBox="0 0 139 139" fill="none" xmlns="http://www.w3.org/2000/svg">
<path d="M69.8943 0.468262C31.6315 0.468262 0.808594 31.2911 0.808594 69.5539C0.808594 107.817 31.6315 138.64 69.8943 138.64C108.157 138.64 138.98 107.817 138.98 69.5539C138.98 31.2911 108.157 0.468262 69.8943 0.468262ZM69.8943 127.1C38.1604 127.1 12.3482 101.135 12.3482 69.5539C12.3482 37.9719 38.1602 12.0079 69.8943 12.0079C101.628 12.0079 127.44 37.8198 127.44 69.5539C127.44 101.288 101.628 127.1 69.8943 127.1Z" fill="white" fill-opacity="0.8"/>
<path d="M101.628 64.5436L55.4697 37.6683C53.7994 36.7574 51.3698 36.7574 49.6996 37.6683C48.0294 38.5791 46.8145 40.5534 46.8145 42.6789V96.4291C46.8145 98.5547 48.0293 100.529 49.6996 101.44C50.6105 102.047 51.6738 102.199 52.5848 102.199C53.4958 102.199 54.559 102.048 55.47 101.44L101.476 74.5643C103.147 73.6534 104.362 71.6791 104.362 69.5537C104.362 67.4291 103.298 65.4549 101.628 64.5439V64.5436Z" fill="white" fill-opacity="0.8"/>
</svg>
