<svg width="24" height="27" viewBox="0 0 24 27" fill="none" xmlns="http://www.w3.org/2000/svg">
<g clip-path="url(#clip0_901_3837)">
<path d="M12.0275 14.1833C5.70176 14.1833 0.555054 19.3532 0.555054 25.7073C0.555054 26.1966 0.950439 26.5938 1.43758 26.5938C1.92471 26.5938 2.3201 26.1965 2.3201 25.7072C2.3201 20.33 6.67429 15.9562 12.0275 15.9562C17.3807 15.9562 21.7349 20.33 21.7349 25.7072C21.7349 26.1965 22.1303 26.5937 22.6174 26.5937C23.1046 26.5937 23.5 26.1965 23.5 25.7072C23.5 19.3532 18.3532 14.1833 12.0275 14.1833Z" fill="#535C6D"/>
<path d="M12.0276 0C8.62118 0 5.8501 2.78344 5.8501 6.20522C5.8501 9.62699 8.6211 12.4104 12.0276 12.4104C15.4341 12.4104 18.2051 9.62691 18.2051 6.20522C18.2051 2.78353 15.4341 0 12.0276 0ZM12.0276 10.6375C9.59546 10.6375 7.61514 8.64826 7.61514 6.20522C7.61514 3.76217 9.59546 1.77297 12.0276 1.77297C14.4597 1.77297 16.44 3.76217 16.44 6.20522C16.44 8.64826 14.4598 10.6375 12.0276 10.6375Z" fill="#535C6D"/>
</g>
<defs>
<clipPath id="clip0_901_3837">
<rect width="23" height="26.5938" fill="white" transform="translate(0.5)"/>
</clipPath>
</defs>
</svg>
